<svg width="24" height="24" viewBox="0 0 24 24" fill="none" xmlns="http://www.w3.org/2000/svg">
<path d="M12 2C9.34784 2 6.8043 3.05357 4.92893 4.92893C3.05357 6.8043 2 9.34784 2 12C2 14.6522 3.05357 17.1957 4.92893 19.0711C6.8043 20.9464 9.34784 22 12 22C14.6522 22 17.1957 20.9464 19.0711 19.0711C20.9464 17.1957 22 14.6522 22 12C22 9.34784 20.9464 6.8043 19.0711 4.92893C17.1957 3.05357 14.6522 2 12 2ZM11 19.93C9.89202 19.7892 8.8258 19.4179 7.86998 18.8401C6.91415 18.2623 6.08991 17.4908 5.4503 16.5752C4.81069 15.6596 4.36988 14.6202 4.15627 13.5239C3.94265 12.4276 3.96096 11.2988 4.21 10.21L9 15V16C9 17.1 9.9 18 11 18V19.93ZM17.9 17.39C17.64 16.58 16.9 16 16 16H15V13C15 12.7348 14.8946 12.4804 14.7071 12.2929C14.5196 12.1054 14.2652 12 14 12H8V10H10C10.2652 10 10.5196 9.89464 10.7071 9.70711C10.8946 9.51957 11 9.26522 11 9V7H13C13.5304 7 14.0391 6.78929 14.4142 6.41421C14.7893 6.03914 15 5.53043 15 5V4.59C16.1939 5.07531 17.2528 5.84187 18.0867 6.82444C18.9206 7.807 19.5048 8.97649 19.7896 10.2334C20.0744 11.4903 20.0513 12.7973 19.7223 14.0434C19.3933 15.2894 18.7681 16.4375 17.9 17.39Z" fill="black"/>
</svg>
